<?xml version="1.0" encoding="UTF-8" standalone="no"?>
<!DOCTYPE svg PUBLIC "-//W3C//DTD SVG 1.1//EN"
 "http://www.w3.org/Graphics/SVG/1.1/DTD/svg11.dtd">
<!-- Generated by graphviz version 2.43.0 (0)
 -->
<!-- Title: G Pages: 1 -->
<svg width="3394pt" height="294pt"
 viewBox="0.00 0.00 3393.60 294.00" xmlns="http://www.w3.org/2000/svg" xmlns:xlink="http://www.w3.org/1999/xlink">
<g id="graph0" class="graph" transform="scale(1 1) rotate(0) translate(4 290)">
<title>G</title>
<polygon fill="white" stroke="transparent" points="-4,4 -4,-290 3389.6,-290 3389.6,4 -4,4"/>
<!-- 94273302900416 -->
<g id="node1" class="node">
<title>94273302900416</title>
<polygon fill="none" stroke="black" points="2.5,-249.5 2.5,-285.5 246.5,-285.5 246.5,-249.5 2.5,-249.5"/>
<text text-anchor="middle" x="19.5" y="-263.8" font-family="Times,serif" font-size="14.00">x1</text>
<polyline fill="none" stroke="black" points="36.5,-249.5 36.5,-285.5 "/>
<text text-anchor="middle" x="87.5" y="-263.8" font-family="Times,serif" font-size="14.00">data 2.0000</text>
<polyline fill="none" stroke="black" points="138.5,-249.5 138.5,-285.5 "/>
<text text-anchor="middle" x="192.5" y="-263.8" font-family="Times,serif" font-size="14.00">grad &#45;1.5000</text>
</g>
<!-- 94273302901344* -->
<g id="node7" class="node">
<title>94273302901344*</title>
<ellipse fill="none" stroke="black" cx="312" cy="-212.5" rx="27" ry="18"/>
<text text-anchor="middle" x="312" y="-208.8" font-family="Times,serif" font-size="14.00">*</text>
</g>
<!-- 94273302900416&#45;&gt;94273302901344* -->
<g id="edge12" class="edge">
<title>94273302900416&#45;&gt;94273302901344*</title>
<path fill="none" stroke="black" d="M218.13,-249.46C228.63,-246.77 239.1,-243.78 249,-240.5 259.71,-236.96 271.05,-232.16 281.07,-227.54"/>
<polygon fill="black" stroke="black" points="282.67,-230.66 290.2,-223.21 279.67,-224.33 282.67,-230.66"/>
</g>
<!-- 94273302900592 -->
<g id="node2" class="node">
<title>94273302900592</title>
<polygon fill="none" stroke="black" points="4.5,-139.5 4.5,-175.5 244.5,-175.5 244.5,-139.5 4.5,-139.5"/>
<text text-anchor="middle" x="21.5" y="-153.8" font-family="Times,serif" font-size="14.00">x2</text>
<polyline fill="none" stroke="black" points="38.5,-139.5 38.5,-175.5 "/>
<text text-anchor="middle" x="89.5" y="-153.8" font-family="Times,serif" font-size="14.00">data 0.0000</text>
<polyline fill="none" stroke="black" points="140.5,-139.5 140.5,-175.5 "/>
<text text-anchor="middle" x="192.5" y="-153.8" font-family="Times,serif" font-size="14.00">grad 0.5000</text>
</g>
<!-- 94273302901632* -->
<g id="node9" class="node">
<title>94273302901632*</title>
<ellipse fill="none" stroke="black" cx="312" cy="-157.5" rx="27" ry="18"/>
<text text-anchor="middle" x="312" y="-153.8" font-family="Times,serif" font-size="14.00">*</text>
</g>
<!-- 94273302900592&#45;&gt;94273302901632* -->
<g id="edge13" class="edge">
<title>94273302900592&#45;&gt;94273302901632*</title>
<path fill="none" stroke="black" d="M244.55,-157.5C255.31,-157.5 265.54,-157.5 274.62,-157.5"/>
<polygon fill="black" stroke="black" points="274.7,-161 284.7,-157.5 274.7,-154 274.7,-161"/>
</g>
<!-- 94273302900768 -->
<g id="node3" class="node">
<title>94273302900768</title>
<polygon fill="none" stroke="black" points="0,-194.5 0,-230.5 249,-230.5 249,-194.5 0,-194.5"/>
<text text-anchor="middle" x="19" y="-208.8" font-family="Times,serif" font-size="14.00">w1</text>
<polyline fill="none" stroke="black" points="38,-194.5 38,-230.5 "/>
<text text-anchor="middle" x="91.5" y="-208.8" font-family="Times,serif" font-size="14.00">data &#45;3.0000</text>
<polyline fill="none" stroke="black" points="145,-194.5 145,-230.5 "/>
<text text-anchor="middle" x="197" y="-208.8" font-family="Times,serif" font-size="14.00">grad 1.0000</text>
</g>
<!-- 94273302900768&#45;&gt;94273302901344* -->
<g id="edge14" class="edge">
<title>94273302900768&#45;&gt;94273302901344*</title>
<path fill="none" stroke="black" d="M249.23,-212.5C258.37,-212.5 267.05,-212.5 274.87,-212.5"/>
<polygon fill="black" stroke="black" points="274.95,-216 284.95,-212.5 274.95,-209 274.95,-216"/>
</g>
<!-- 94273302900944 -->
<g id="node4" class="node">
<title>94273302900944</title>
<polygon fill="none" stroke="black" points="2.5,-84.5 2.5,-120.5 246.5,-120.5 246.5,-84.5 2.5,-84.5"/>
<text text-anchor="middle" x="21.5" y="-98.8" font-family="Times,serif" font-size="14.00">w2</text>
<polyline fill="none" stroke="black" points="40.5,-84.5 40.5,-120.5 "/>
<text text-anchor="middle" x="91.5" y="-98.8" font-family="Times,serif" font-size="14.00">data 1.0000</text>
<polyline fill="none" stroke="black" points="142.5,-84.5 142.5,-120.5 "/>
<text text-anchor="middle" x="194.5" y="-98.8" font-family="Times,serif" font-size="14.00">grad 0.0000</text>
</g>
<!-- 94273302900944&#45;&gt;94273302901632* -->
<g id="edge15" class="edge">
<title>94273302900944&#45;&gt;94273302901632*</title>
<path fill="none" stroke="black" d="M214.42,-120.55C226.15,-123.54 237.93,-126.87 249,-130.5 259.46,-133.93 270.57,-138.47 280.46,-142.84"/>
<polygon fill="black" stroke="black" points="279.31,-146.17 289.87,-147.12 282.21,-139.79 279.31,-146.17"/>
</g>
<!-- 94273302901120 -->
<g id="node5" class="node">
<title>94273302901120</title>
<polygon fill="none" stroke="black" points="803,-111.5 803,-147.5 1035,-147.5 1035,-111.5 803,-111.5"/>
<text text-anchor="middle" x="816" y="-125.8" font-family="Times,serif" font-size="14.00">b</text>
<polyline fill="none" stroke="black" points="829,-111.5 829,-147.5 "/>
<text text-anchor="middle" x="880" y="-125.8" font-family="Times,serif" font-size="14.00">data 6.8814</text>
<polyline fill="none" stroke="black" points="931,-111.5 931,-147.5 "/>
<text text-anchor="middle" x="983" y="-125.8" font-family="Times,serif" font-size="14.00">grad 0.5000</text>
</g>
<!-- 94273302902208+ -->
<g id="node13" class="node">
<title>94273302902208+</title>
<ellipse fill="none" stroke="black" cx="1134" cy="-156.5" rx="27" ry="18"/>
<text text-anchor="middle" x="1134" y="-152.8" font-family="Times,serif" font-size="14.00">+</text>
</g>
<!-- 94273302901120&#45;&gt;94273302902208+ -->
<g id="edge16" class="edge">
<title>94273302901120&#45;&gt;94273302902208+</title>
<path fill="none" stroke="black" d="M1035.23,-144.11C1057.63,-146.95 1079.52,-149.72 1096.88,-151.92"/>
<polygon fill="black" stroke="black" points="1096.71,-155.43 1107.08,-153.21 1097.59,-148.48 1096.71,-155.43"/>
</g>
<!-- 94273302901344 -->
<g id="node6" class="node">
<title>94273302901344</title>
<polygon fill="none" stroke="black" points="375,-194.5 375,-230.5 641,-230.5 641,-194.5 375,-194.5"/>
<text text-anchor="middle" x="402.5" y="-208.8" font-family="Times,serif" font-size="14.00">x1w1</text>
<polyline fill="none" stroke="black" points="430,-194.5 430,-230.5 "/>
<text text-anchor="middle" x="483.5" y="-208.8" font-family="Times,serif" font-size="14.00">data &#45;6.0000</text>
<polyline fill="none" stroke="black" points="537,-194.5 537,-230.5 "/>
<text text-anchor="middle" x="589" y="-208.8" font-family="Times,serif" font-size="14.00">grad 0.5000</text>
</g>
<!-- 94273302901920+ -->
<g id="node11" class="node">
<title>94273302901920+</title>
<ellipse fill="none" stroke="black" cx="704" cy="-184.5" rx="27" ry="18"/>
<text text-anchor="middle" x="704" y="-180.8" font-family="Times,serif" font-size="14.00">+</text>
</g>
<!-- 94273302901344&#45;&gt;94273302901920+ -->
<g id="edge17" class="edge">
<title>94273302901344&#45;&gt;94273302901920+</title>
<path fill="none" stroke="black" d="M633.78,-194.49C645.77,-192.76 657.15,-191.12 667.08,-189.68"/>
<polygon fill="black" stroke="black" points="667.86,-193.11 677.25,-188.22 666.86,-186.18 667.86,-193.11"/>
</g>
<!-- 94273302901344*&#45;&gt;94273302901344 -->
<g id="edge1" class="edge">
<title>94273302901344*&#45;&gt;94273302901344</title>
<path fill="none" stroke="black" d="M339.16,-212.5C346.61,-212.5 355.28,-212.5 364.68,-212.5"/>
<polygon fill="black" stroke="black" points="364.73,-216 374.73,-212.5 364.73,-209 364.73,-216"/>
</g>
<!-- 94273302901632 -->
<g id="node8" class="node">
<title>94273302901632</title>
<polygon fill="none" stroke="black" points="377.5,-139.5 377.5,-175.5 638.5,-175.5 638.5,-139.5 377.5,-139.5"/>
<text text-anchor="middle" x="405" y="-153.8" font-family="Times,serif" font-size="14.00">x2w2</text>
<polyline fill="none" stroke="black" points="432.5,-139.5 432.5,-175.5 "/>
<text text-anchor="middle" x="483.5" y="-153.8" font-family="Times,serif" font-size="14.00">data 0.0000</text>
<polyline fill="none" stroke="black" points="534.5,-139.5 534.5,-175.5 "/>
<text text-anchor="middle" x="586.5" y="-153.8" font-family="Times,serif" font-size="14.00">grad 0.5000</text>
</g>
<!-- 94273302901632&#45;&gt;94273302901920+ -->
<g id="edge18" class="edge">
<title>94273302901632&#45;&gt;94273302901920+</title>
<path fill="none" stroke="black" d="M638.4,-175.51C648.78,-176.95 658.6,-178.32 667.3,-179.53"/>
<polygon fill="black" stroke="black" points="666.94,-183.01 677.32,-180.93 667.9,-176.08 666.94,-183.01"/>
</g>
<!-- 94273302901632*&#45;&gt;94273302901632 -->
<g id="edge2" class="edge">
<title>94273302901632*&#45;&gt;94273302901632</title>
<path fill="none" stroke="black" d="M339.16,-157.5C347.24,-157.5 356.75,-157.5 367.07,-157.5"/>
<polygon fill="black" stroke="black" points="367.2,-161 377.2,-157.5 367.2,-154 367.2,-161"/>
</g>
<!-- 94273302901920 -->
<g id="node10" class="node">
<title>94273302901920</title>
<polygon fill="none" stroke="black" points="767,-166.5 767,-202.5 1071,-202.5 1071,-166.5 767,-166.5"/>
<text text-anchor="middle" x="813.5" y="-180.8" font-family="Times,serif" font-size="14.00">x1w1x2w2</text>
<polyline fill="none" stroke="black" points="860,-166.5 860,-202.5 "/>
<text text-anchor="middle" x="913.5" y="-180.8" font-family="Times,serif" font-size="14.00">data &#45;6.0000</text>
<polyline fill="none" stroke="black" points="967,-166.5 967,-202.5 "/>
<text text-anchor="middle" x="1019" y="-180.8" font-family="Times,serif" font-size="14.00">grad 0.5000</text>
</g>
<!-- 94273302901920&#45;&gt;94273302902208+ -->
<g id="edge19" class="edge">
<title>94273302901920&#45;&gt;94273302902208+</title>
<path fill="none" stroke="black" d="M1057,-166.49C1071.6,-164.57 1085.35,-162.76 1097.05,-161.23"/>
<polygon fill="black" stroke="black" points="1097.71,-164.67 1107.17,-159.9 1096.8,-157.73 1097.71,-164.67"/>
</g>
<!-- 94273302901920+&#45;&gt;94273302901920 -->
<g id="edge3" class="edge">
<title>94273302901920+&#45;&gt;94273302901920</title>
<path fill="none" stroke="black" d="M731.12,-184.5C738.54,-184.5 747.2,-184.5 756.66,-184.5"/>
<polygon fill="black" stroke="black" points="756.79,-188 766.79,-184.5 756.79,-181 756.79,-188"/>
</g>
<!-- 94273302902208 -->
<g id="node12" class="node">
<title>94273302902208</title>
<polygon fill="none" stroke="black" points="1197,-138.5 1197,-174.5 1429,-174.5 1429,-138.5 1197,-138.5"/>
<text text-anchor="middle" x="1210" y="-152.8" font-family="Times,serif" font-size="14.00">n</text>
<polyline fill="none" stroke="black" points="1223,-138.5 1223,-174.5 "/>
<text text-anchor="middle" x="1274" y="-152.8" font-family="Times,serif" font-size="14.00">data 0.8814</text>
<polyline fill="none" stroke="black" points="1325,-138.5 1325,-174.5 "/>
<text text-anchor="middle" x="1377" y="-152.8" font-family="Times,serif" font-size="14.00">grad 0.5000</text>
</g>
<!-- 94273302902672* -->
<g id="node16" class="node">
<title>94273302902672*</title>
<ellipse fill="none" stroke="black" cx="1492" cy="-128.5" rx="27" ry="18"/>
<text text-anchor="middle" x="1492" y="-124.8" font-family="Times,serif" font-size="14.00">*</text>
</g>
<!-- 94273302902208&#45;&gt;94273302902672* -->
<g id="edge20" class="edge">
<title>94273302902208&#45;&gt;94273302902672*</title>
<path fill="none" stroke="black" d="M1428.1,-138.45C1437.88,-136.9 1447.21,-135.43 1455.54,-134.11"/>
<polygon fill="black" stroke="black" points="1456.19,-137.55 1465.52,-132.53 1455.1,-130.64 1456.19,-137.55"/>
</g>
<!-- 94273302902208+&#45;&gt;94273302902208 -->
<g id="edge4" class="edge">
<title>94273302902208+&#45;&gt;94273302902208</title>
<path fill="none" stroke="black" d="M1161.12,-156.5C1168.53,-156.5 1177.14,-156.5 1186.4,-156.5"/>
<polygon fill="black" stroke="black" points="1186.69,-160 1196.69,-156.5 1186.69,-153 1186.69,-160"/>
</g>
<!-- 94273302902448 -->
<g id="node14" class="node">
<title>94273302902448</title>
<polygon fill="none" stroke="black" points="1199.5,-83.5 1199.5,-119.5 1426.5,-119.5 1426.5,-83.5 1199.5,-83.5"/>
<text text-anchor="middle" x="1210" y="-97.8" font-family="Times,serif" font-size="14.00"> </text>
<polyline fill="none" stroke="black" points="1220.5,-83.5 1220.5,-119.5 "/>
<text text-anchor="middle" x="1271.5" y="-97.8" font-family="Times,serif" font-size="14.00">data 2.0000</text>
<polyline fill="none" stroke="black" points="1322.5,-83.5 1322.5,-119.5 "/>
<text text-anchor="middle" x="1374.5" y="-97.8" font-family="Times,serif" font-size="14.00">grad 0.2203</text>
</g>
<!-- 94273302902448&#45;&gt;94273302902672* -->
<g id="edge21" class="edge">
<title>94273302902448&#45;&gt;94273302902672*</title>
<path fill="none" stroke="black" d="M1426.6,-118.68C1436.87,-120.24 1446.68,-121.74 1455.4,-123.07"/>
<polygon fill="black" stroke="black" points="1455.05,-126.56 1465.47,-124.61 1456.11,-119.64 1455.05,-126.56"/>
</g>
<!-- 94273302902672 -->
<g id="node15" class="node">
<title>94273302902672</title>
<polygon fill="none" stroke="black" points="1557.5,-110.5 1557.5,-146.5 1784.5,-146.5 1784.5,-110.5 1557.5,-110.5"/>
<text text-anchor="middle" x="1568" y="-124.8" font-family="Times,serif" font-size="14.00"> </text>
<polyline fill="none" stroke="black" points="1578.5,-110.5 1578.5,-146.5 "/>
<text text-anchor="middle" x="1629.5" y="-124.8" font-family="Times,serif" font-size="14.00">data 1.7627</text>
<polyline fill="none" stroke="black" points="1680.5,-110.5 1680.5,-146.5 "/>
<text text-anchor="middle" x="1732.5" y="-124.8" font-family="Times,serif" font-size="14.00">grad 0.2500</text>
</g>
<!-- 94273302902944exp -->
<g id="node18" class="node">
<title>94273302902944exp</title>
<ellipse fill="none" stroke="black" cx="1850.3" cy="-128.5" rx="27.1" ry="18"/>
<text text-anchor="middle" x="1850.3" y="-124.8" font-family="Times,serif" font-size="14.00">exp</text>
</g>
<!-- 94273302902672&#45;&gt;94273302902944exp -->
<g id="edge22" class="edge">
<title>94273302902672&#45;&gt;94273302902944exp</title>
<path fill="none" stroke="black" d="M1784.54,-128.5C1794.56,-128.5 1804.14,-128.5 1812.71,-128.5"/>
<polygon fill="black" stroke="black" points="1812.99,-132 1822.99,-128.5 1812.99,-125 1812.99,-132"/>
</g>
<!-- 94273302902672*&#45;&gt;94273302902672 -->
<g id="edge5" class="edge">
<title>94273302902672*&#45;&gt;94273302902672</title>
<path fill="none" stroke="black" d="M1519.12,-128.5C1527.28,-128.5 1536.88,-128.5 1547.22,-128.5"/>
<polygon fill="black" stroke="black" points="1547.34,-132 1557.34,-128.5 1547.34,-125 1547.34,-132"/>
</g>
<!-- 94273302902944 -->
<g id="node17" class="node">
<title>94273302902944</title>
<polygon fill="none" stroke="black" points="1914.1,-110.5 1914.1,-146.5 2145.1,-146.5 2145.1,-110.5 1914.1,-110.5"/>
<text text-anchor="middle" x="1926.6" y="-124.8" font-family="Times,serif" font-size="14.00">e</text>
<polyline fill="none" stroke="black" points="1939.1,-110.5 1939.1,-146.5 "/>
<text text-anchor="middle" x="1990.1" y="-124.8" font-family="Times,serif" font-size="14.00">data 5.8284</text>
<polyline fill="none" stroke="black" points="2041.1,-110.5 2041.1,-146.5 "/>
<text text-anchor="middle" x="2093.1" y="-124.8" font-family="Times,serif" font-size="14.00">grad 0.0429</text>
</g>
<!-- 94273302903392+ -->
<g id="node21" class="node">
<title>94273302903392+</title>
<ellipse fill="none" stroke="black" cx="2208.6" cy="-155.5" rx="27" ry="18"/>
<text text-anchor="middle" x="2208.6" y="-151.8" font-family="Times,serif" font-size="14.00">+</text>
</g>
<!-- 94273302902944&#45;&gt;94273302903392+ -->
<g id="edge23" class="edge">
<title>94273302902944&#45;&gt;94273302903392+</title>
<path fill="none" stroke="black" d="M2145.19,-145.98C2154.71,-147.43 2163.79,-148.82 2171.93,-150.06"/>
<polygon fill="black" stroke="black" points="2171.63,-153.55 2182.04,-151.6 2172.68,-146.63 2171.63,-153.55"/>
</g>
<!-- 94273302904320+ -->
<g id="node27" class="node">
<title>94273302904320+</title>
<ellipse fill="none" stroke="black" cx="2208.6" cy="-100.5" rx="27" ry="18"/>
<text text-anchor="middle" x="2208.6" y="-96.8" font-family="Times,serif" font-size="14.00">+</text>
</g>
<!-- 94273302902944&#45;&gt;94273302904320+ -->
<g id="edge24" class="edge">
<title>94273302902944&#45;&gt;94273302904320+</title>
<path fill="none" stroke="black" d="M2144.69,-110.45C2154.48,-108.9 2163.8,-107.43 2172.14,-106.11"/>
<polygon fill="black" stroke="black" points="2172.79,-109.55 2182.12,-104.53 2171.69,-102.64 2172.79,-109.55"/>
</g>
<!-- 94273302902944exp&#45;&gt;94273302902944 -->
<g id="edge6" class="edge">
<title>94273302902944exp&#45;&gt;94273302902944</title>
<path fill="none" stroke="black" d="M1877.84,-128.5C1885.44,-128.5 1894.26,-128.5 1903.76,-128.5"/>
<polygon fill="black" stroke="black" points="1903.87,-132 1913.87,-128.5 1903.87,-125 1903.87,-132"/>
</g>
<!-- 94273302903168 -->
<g id="node19" class="node">
<title>94273302903168</title>
<polygon fill="none" stroke="black" points="1914.1,-165.5 1914.1,-201.5 2145.1,-201.5 2145.1,-165.5 1914.1,-165.5"/>
<text text-anchor="middle" x="1924.6" y="-179.8" font-family="Times,serif" font-size="14.00"> </text>
<polyline fill="none" stroke="black" points="1935.1,-165.5 1935.1,-201.5 "/>
<text text-anchor="middle" x="1986.1" y="-179.8" font-family="Times,serif" font-size="14.00">data 1.0000</text>
<polyline fill="none" stroke="black" points="2037.1,-165.5 2037.1,-201.5 "/>
<text text-anchor="middle" x="2091.1" y="-179.8" font-family="Times,serif" font-size="14.00">grad &#45;0.1036</text>
</g>
<!-- 94273302903168&#45;&gt;94273302903392+ -->
<g id="edge25" class="edge">
<title>94273302903168&#45;&gt;94273302903392+</title>
<path fill="none" stroke="black" d="M2144.69,-165.45C2154.48,-163.9 2163.8,-162.43 2172.14,-161.11"/>
<polygon fill="black" stroke="black" points="2172.79,-164.55 2182.12,-159.53 2171.69,-157.64 2172.79,-164.55"/>
</g>
<!-- 94273302903392 -->
<g id="node20" class="node">
<title>94273302903392</title>
<polygon fill="none" stroke="black" points="2271.6,-137.5 2271.6,-173.5 2502.6,-173.5 2502.6,-137.5 2271.6,-137.5"/>
<text text-anchor="middle" x="2282.1" y="-151.8" font-family="Times,serif" font-size="14.00"> </text>
<polyline fill="none" stroke="black" points="2292.6,-137.5 2292.6,-173.5 "/>
<text text-anchor="middle" x="2343.6" y="-151.8" font-family="Times,serif" font-size="14.00">data 6.8284</text>
<polyline fill="none" stroke="black" points="2394.6,-137.5 2394.6,-173.5 "/>
<text text-anchor="middle" x="2448.6" y="-151.8" font-family="Times,serif" font-size="14.00">grad &#45;0.1036</text>
</g>
<!-- 94273302904592**&#45;1.000000 -->
<g id="node29" class="node">
<title>94273302904592**&#45;1.000000</title>
<ellipse fill="none" stroke="black" cx="2652.1" cy="-155.5" rx="66.09" ry="18"/>
<text text-anchor="middle" x="2652.1" y="-151.8" font-family="Times,serif" font-size="14.00">**&#45;1.000000</text>
</g>
<!-- 94273302903392&#45;&gt;94273302904592**&#45;1.000000 -->
<g id="edge26" class="edge">
<title>94273302903392&#45;&gt;94273302904592**&#45;1.000000</title>
<path fill="none" stroke="black" d="M2502.69,-155.5C2527.29,-155.5 2552.71,-155.5 2575.4,-155.5"/>
<polygon fill="black" stroke="black" points="2575.62,-159 2585.62,-155.5 2575.62,-152 2575.62,-159"/>
</g>
<!-- 94273302903392+&#45;&gt;94273302903392 -->
<g id="edge7" class="edge">
<title>94273302903392+&#45;&gt;94273302903392</title>
<path fill="none" stroke="black" d="M2235.64,-155.5C2243.18,-155.5 2251.96,-155.5 2261.41,-155.5"/>
<polygon fill="black" stroke="black" points="2261.49,-159 2271.49,-155.5 2261.49,-152 2261.49,-159"/>
</g>
<!-- 94273302903632 -->
<g id="node22" class="node">
<title>94273302903632</title>
<polygon fill="none" stroke="black" points="1555.5,-55.5 1555.5,-91.5 1786.5,-91.5 1786.5,-55.5 1555.5,-55.5"/>
<text text-anchor="middle" x="1566" y="-69.8" font-family="Times,serif" font-size="14.00"> </text>
<polyline fill="none" stroke="black" points="1576.5,-55.5 1576.5,-91.5 "/>
<text text-anchor="middle" x="1627.5" y="-69.8" font-family="Times,serif" font-size="14.00">data 1.0000</text>
<polyline fill="none" stroke="black" points="1678.5,-55.5 1678.5,-91.5 "/>
<text text-anchor="middle" x="1732.5" y="-69.8" font-family="Times,serif" font-size="14.00">grad &#45;0.1464</text>
</g>
<!-- 94273302904032* -->
<g id="node25" class="node">
<title>94273302904032*</title>
<ellipse fill="none" stroke="black" cx="1850.3" cy="-73.5" rx="27" ry="18"/>
<text text-anchor="middle" x="1850.3" y="-69.8" font-family="Times,serif" font-size="14.00">*</text>
</g>
<!-- 94273302903632&#45;&gt;94273302904032* -->
<g id="edge27" class="edge">
<title>94273302903632&#45;&gt;94273302904032*</title>
<path fill="none" stroke="black" d="M1786.79,-73.5C1796.03,-73.5 1804.86,-73.5 1812.82,-73.5"/>
<polygon fill="black" stroke="black" points="1813.09,-77 1823.09,-73.5 1813.09,-70 1813.09,-77"/>
</g>
<!-- 94273302903808 -->
<g id="node23" class="node">
<title>94273302903808</title>
<polygon fill="none" stroke="black" points="1555,-0.5 1555,-36.5 1787,-36.5 1787,-0.5 1555,-0.5"/>
<text text-anchor="middle" x="1565.5" y="-14.8" font-family="Times,serif" font-size="14.00"> </text>
<polyline fill="none" stroke="black" points="1576,-0.5 1576,-36.5 "/>
<text text-anchor="middle" x="1629.5" y="-14.8" font-family="Times,serif" font-size="14.00">data &#45;1.0000</text>
<polyline fill="none" stroke="black" points="1683,-0.5 1683,-36.5 "/>
<text text-anchor="middle" x="1735" y="-14.8" font-family="Times,serif" font-size="14.00">grad 0.1464</text>
</g>
<!-- 94273302903808&#45;&gt;94273302904032* -->
<g id="edge28" class="edge">
<title>94273302903808&#45;&gt;94273302904032*</title>
<path fill="none" stroke="black" d="M1753.54,-36.53C1764.87,-39.56 1776.29,-42.9 1787,-46.5 1797.59,-50.05 1808.87,-54.67 1818.88,-59.09"/>
<polygon fill="black" stroke="black" points="1817.47,-62.29 1828.03,-63.21 1820.35,-55.91 1817.47,-62.29"/>
</g>
<!-- 94273302904032 -->
<g id="node24" class="node">
<title>94273302904032</title>
<polygon fill="none" stroke="black" points="1913.6,-55.5 1913.6,-91.5 2145.6,-91.5 2145.6,-55.5 1913.6,-55.5"/>
<text text-anchor="middle" x="1924.1" y="-69.8" font-family="Times,serif" font-size="14.00"> </text>
<polyline fill="none" stroke="black" points="1934.6,-55.5 1934.6,-91.5 "/>
<text text-anchor="middle" x="1988.1" y="-69.8" font-family="Times,serif" font-size="14.00">data &#45;1.0000</text>
<polyline fill="none" stroke="black" points="2041.6,-55.5 2041.6,-91.5 "/>
<text text-anchor="middle" x="2093.6" y="-69.8" font-family="Times,serif" font-size="14.00">grad 0.1464</text>
</g>
<!-- 94273302904032&#45;&gt;94273302904320+ -->
<g id="edge29" class="edge">
<title>94273302904032&#45;&gt;94273302904320+</title>
<path fill="none" stroke="black" d="M2145.69,-91.06C2155.05,-92.49 2163.98,-93.85 2172,-95.07"/>
<polygon fill="black" stroke="black" points="2171.55,-98.54 2181.96,-96.59 2172.61,-91.62 2171.55,-98.54"/>
</g>
<!-- 94273302904032*&#45;&gt;94273302904032 -->
<g id="edge8" class="edge">
<title>94273302904032*&#45;&gt;94273302904032</title>
<path fill="none" stroke="black" d="M1877.46,-73.5C1885.04,-73.5 1893.85,-73.5 1903.35,-73.5"/>
<polygon fill="black" stroke="black" points="1903.47,-77 1913.47,-73.5 1903.47,-70 1903.47,-77"/>
</g>
<!-- 94273302904320 -->
<g id="node26" class="node">
<title>94273302904320</title>
<polygon fill="none" stroke="black" points="2538.6,-82.5 2538.6,-118.5 2765.6,-118.5 2765.6,-82.5 2538.6,-82.5"/>
<text text-anchor="middle" x="2549.1" y="-96.8" font-family="Times,serif" font-size="14.00"> </text>
<polyline fill="none" stroke="black" points="2559.6,-82.5 2559.6,-118.5 "/>
<text text-anchor="middle" x="2610.6" y="-96.8" font-family="Times,serif" font-size="14.00">data 4.8284</text>
<polyline fill="none" stroke="black" points="2661.6,-82.5 2661.6,-118.5 "/>
<text text-anchor="middle" x="2713.6" y="-96.8" font-family="Times,serif" font-size="14.00">grad 0.1464</text>
</g>
<!-- 94273302904864* -->
<g id="node31" class="node">
<title>94273302904864*</title>
<ellipse fill="none" stroke="black" cx="3091.6" cy="-127.5" rx="27" ry="18"/>
<text text-anchor="middle" x="3091.6" y="-123.8" font-family="Times,serif" font-size="14.00">*</text>
</g>
<!-- 94273302904320&#45;&gt;94273302904864* -->
<g id="edge30" class="edge">
<title>94273302904320&#45;&gt;94273302904864*</title>
<path fill="none" stroke="black" d="M2765.76,-107.45C2861.02,-113.33 2991.68,-121.4 3054.28,-125.26"/>
<polygon fill="black" stroke="black" points="3054.24,-128.76 3064.44,-125.89 3054.68,-121.78 3054.24,-128.76"/>
</g>
<!-- 94273302904320+&#45;&gt;94273302904320 -->
<g id="edge9" class="edge">
<title>94273302904320+&#45;&gt;94273302904320</title>
<path fill="none" stroke="black" d="M2235.89,-100.5C2292.16,-100.5 2427.31,-100.5 2528.23,-100.5"/>
<polygon fill="black" stroke="black" points="2528.5,-104 2538.5,-100.5 2528.5,-97 2528.5,-104"/>
</g>
<!-- 94273302904592 -->
<g id="node28" class="node">
<title>94273302904592</title>
<polygon fill="none" stroke="black" points="2801.6,-135.5 2801.6,-171.5 3028.6,-171.5 3028.6,-135.5 2801.6,-135.5"/>
<text text-anchor="middle" x="2812.1" y="-149.8" font-family="Times,serif" font-size="14.00"> </text>
<polyline fill="none" stroke="black" points="2822.6,-135.5 2822.6,-171.5 "/>
<text text-anchor="middle" x="2873.6" y="-149.8" font-family="Times,serif" font-size="14.00">data 0.1464</text>
<polyline fill="none" stroke="black" points="2924.6,-135.5 2924.6,-171.5 "/>
<text text-anchor="middle" x="2976.6" y="-149.8" font-family="Times,serif" font-size="14.00">grad 4.8284</text>
</g>
<!-- 94273302904592&#45;&gt;94273302904864* -->
<g id="edge31" class="edge">
<title>94273302904592&#45;&gt;94273302904864*</title>
<path fill="none" stroke="black" d="M3029.07,-136.67C3038.37,-135.28 3047.23,-133.96 3055.2,-132.77"/>
<polygon fill="black" stroke="black" points="3055.73,-136.23 3065.1,-131.3 3054.7,-129.31 3055.73,-136.23"/>
</g>
<!-- 94273302904592**&#45;1.000000&#45;&gt;94273302904592 -->
<g id="edge10" class="edge">
<title>94273302904592**&#45;1.000000&#45;&gt;94273302904592</title>
<path fill="none" stroke="black" d="M2718.62,-155C2740.72,-154.83 2766.15,-154.63 2791.21,-154.44"/>
<polygon fill="black" stroke="black" points="2791.56,-157.94 2801.54,-154.36 2791.51,-150.94 2791.56,-157.94"/>
</g>
<!-- 94273302904864 -->
<g id="node30" class="node">
<title>94273302904864</title>
<polygon fill="none" stroke="black" points="3154.6,-109.5 3154.6,-145.5 3385.6,-145.5 3385.6,-109.5 3154.6,-109.5"/>
<text text-anchor="middle" x="3167.1" y="-123.8" font-family="Times,serif" font-size="14.00">o</text>
<polyline fill="none" stroke="black" points="3179.6,-109.5 3179.6,-145.5 "/>
<text text-anchor="middle" x="3230.6" y="-123.8" font-family="Times,serif" font-size="14.00">data 0.7071</text>
<polyline fill="none" stroke="black" points="3281.6,-109.5 3281.6,-145.5 "/>
<text text-anchor="middle" x="3333.6" y="-123.8" font-family="Times,serif" font-size="14.00">grad 1.0000</text>
</g>
<!-- 94273302904864*&#45;&gt;94273302904864 -->
<g id="edge11" class="edge">
<title>94273302904864*&#45;&gt;94273302904864</title>
<path fill="none" stroke="black" d="M3118.64,-127.5C3126.18,-127.5 3134.96,-127.5 3144.41,-127.5"/>
<polygon fill="black" stroke="black" points="3144.49,-131 3154.49,-127.5 3144.49,-124 3144.49,-131"/>
</g>
</g>
</svg>
